<svg width="285" height="284" viewBox="0 0 285 284" fill="none" xmlns="http://www.w3.org/2000/svg">
<path d="M47.4999 106.5L66 125C66 125 31.3333 159.5 30.5 162C29.6667 164.5 27.4883 173.862 32 178.5C36.2755 182.895 42 182.5 47.5 181L66.0001 199.5C66.0001 199.5 59.5 205.453 53.5 207.5C46.6597 209.833 42.1223 209.228 35 208C27.9958 206.792 24 205.593 18 201.5C12.2923 197.607 5.99997 188.5 5.99997 188.5C0.499994 181 -2.00009 157 6.49991 148.5L47.4999 106.5Z" fill="#0F2D8E"/>
<path d="M238.344 176.586L219.844 158.086C219.844 158.086 254.511 123.586 255.344 121.086C256.178 118.586 258.356 109.223 253.844 104.586C249.569 100.191 243.844 100.586 238.344 102.086L219.844 83.5858C219.844 83.5858 226.344 77.6324 232.344 75.5858C239.185 73.2526 243.722 73.8577 250.844 75.0858C257.849 76.2936 261.844 77.4933 267.844 81.5858C273.552 85.479 279.844 94.5858 279.844 94.5858C285.344 102.086 287.844 126.086 279.344 134.586L238.344 176.586Z" fill="#0F2D8E"/>
<path d="M177.586 46.5264L159.086 65.0265C159.086 65.0265 124.586 30.3598 122.086 29.5265C119.586 28.6932 110.223 26.5148 105.586 31.0265C101.191 35.302 101.586 41.0265 103.086 46.5265L84.5858 65.0265C84.5858 65.0265 78.6324 58.5265 76.5858 52.5265C74.2526 45.6862 74.8577 41.1488 76.0858 34.0265C77.2936 27.0222 78.4933 23.0265 82.5858 17.0265C86.479 11.3188 95.5858 5.02645 95.5858 5.02645C103.086 -0.47352 127.086 -2.9736 135.586 5.5264L177.586 46.5264Z" fill="#0F2D8E"/>
<path d="M108.259 236.559L126.759 218.059C126.759 218.059 161.259 252.726 163.759 253.559C166.259 254.393 175.621 256.571 180.259 252.059C184.653 247.784 184.259 242.059 182.759 236.559L201.259 218.059C201.259 218.059 207.212 224.559 209.259 230.559C211.592 237.4 210.987 241.937 209.759 249.059C208.551 256.063 207.351 260.059 203.259 266.059C199.365 271.767 190.259 278.059 190.259 278.059C182.759 283.559 158.759 286.059 150.259 277.559L108.259 236.559Z" fill="#0F2D8E"/>
<path d="M103.963 121.064L85.2299 139.328C85.2299 139.328 51.1718 104.227 48.6825 103.362C46.1933 102.497 36.8593 100.2 32.1649 104.653C27.7164 108.872 28.0385 114.602 29.4687 120.12L10.7359 138.384C10.7359 138.384 4.86525 131.809 2.89486 125.784C0.648502 118.915 1.31105 114.385 2.62925 107.279C3.92561 100.291 5.17584 96.3105 9.34407 90.3628C13.3093 84.7048 22.495 78.5284 22.495 78.5284C30.0641 73.1238 54.0938 70.928 62.4855 79.5349L103.963 121.064Z" fill="#0F2D8E"/>
<path d="M181.882 162.022L200.614 143.758C200.614 143.758 234.673 178.859 237.162 179.724C239.651 180.589 248.985 182.885 253.679 178.433C258.128 174.213 257.806 168.484 256.376 162.966L275.108 144.701C275.108 144.701 280.979 151.276 282.95 157.302C285.196 164.171 284.533 168.7 283.215 175.807C281.919 182.795 280.669 186.775 276.5 192.723C272.535 198.381 263.349 204.557 263.349 204.557C255.78 209.962 231.751 212.158 223.359 203.551L181.882 162.022Z" fill="#0F2D8E"/>
<path d="M163.022 102.989L144.758 84.2565C144.758 84.2565 179.859 50.1984 180.724 47.7091C181.589 45.2198 183.885 35.8859 179.433 31.1915C175.213 26.7429 169.484 27.0651 163.966 28.4953L145.702 9.76243C145.702 9.76243 152.276 3.8918 158.302 1.92141C165.171 -0.32495 169.701 0.3376 176.807 1.65579C183.795 2.95216 187.775 4.20239 193.723 8.37062C199.381 12.3358 205.557 21.5216 205.557 21.5216C210.962 29.0906 213.158 53.1204 204.551 61.512L163.022 102.989Z" fill="#0F2D8E"/>
<path d="M122.822 180.096L141.086 198.829C141.086 198.829 105.986 232.887 105.121 235.377C104.256 237.866 101.959 247.2 106.412 251.894C110.631 256.343 116.36 256.021 121.879 254.59L140.143 273.323C140.143 273.323 133.568 279.194 127.542 281.164C120.673 283.411 116.144 282.748 109.038 281.43C102.049 280.134 98.069 278.883 92.1213 274.715C86.4633 270.75 80.2869 261.564 80.2869 261.564C74.8824 253.995 72.6865 229.965 81.2935 221.574L122.822 180.096Z" fill="#0F2D8E"/>
<rect x="52.2935" y="145" width="68.922" height="24.8879" transform="rotate(44.3994 52.2935 145)" fill="#0F2D8E"/>
<rect x="148.28" y="166.413" width="38.3165" height="24.8879" transform="rotate(44.3994 148.28 166.413)" fill="#0F2D8E"/>
<path d="M126.098 144.629L126.098 169.212L121.105 174.573L108.685 162.411L126.098 144.629Z" fill="#0F2D8E"/>
<rect x="127.413" y="72" width="36.9362" height="24.8879" transform="rotate(44.3994 127.413 72)" fill="#0F2D8E"/>
<path d="M165.951 109.738L177.993 121.531L160.58 139.313L157 135.982L165.951 109.738Z" fill="#0F2D8E"/>
<rect x="129.482" y="134.137" width="55.3126" height="24.8879" transform="rotate(134.399 129.482 134.137)" fill="#0F2D8E"/>
<rect x="139.004" y="51.413" width="68.922" height="24.8879" transform="rotate(134.399 139.004 51.413)" fill="#0F2D8E"/>
<rect x="213.004" y="125.413" width="68.922" height="24.8879" transform="rotate(134.399 213.004 125.413)" fill="#0F2D8E"/>
<rect x="213.004" y="199.413" width="68.922" height="24.8879" transform="rotate(134.399 213.004 199.413)" fill="#0F2D8E"/>
<rect x="200.413" y="71" width="68.922" height="24.8879" transform="rotate(44.3994 200.413 71)" fill="#0F2D8E"/>
<path d="M133.494 162.793C135.209 156.748 138.424 146.523 140.486 140.585C142.168 135.741 146.979 128.248 146.979 127.754C146.979 127.369 146.256 127.481 145.98 127.754C145.481 128.248 141.44 136.972 138.988 143.053C136.316 149.677 135.226 153.544 132.994 160.325C131.793 163.977 130.497 169.702 129.998 169.702C129.498 169.702 128.849 165.53 128.499 162.793C128.31 161.312 128 151.442 128.499 152.429C128.623 152.673 129.503 154.407 130.497 155.39C130.997 155.884 129.041 152.697 128.499 150.949C128.347 150.455 128 147.988 128 147.494C128 147.001 128 144.04 128.499 144.04C128.499 144.04 129.998 146.341 129.998 147.988C129.998 148.481 129.998 144.771 129.998 142.066C129.998 138.611 131.496 133.183 131.996 134.17C132.257 134.687 131.996 135.157 131.996 135.65C131.996 136.754 132.495 135.65 132.495 135.157C132.495 134.459 133.494 128.741 133.993 128.741C134.493 128.741 134.493 130.222 134.992 130.715C135.223 130.943 134.908 128.21 135.492 126.767C136.491 124.3 140.486 117.567 140.486 119.365C140.486 119.858 140.486 122.819 140.986 123.313C141.403 123.725 141.38 119.519 142.484 117.884C143.483 116.404 147.978 111.469 147.978 111.962C147.978 112.949 147.41 115.215 147.978 114.43C150.475 110.975 153.472 109.001 156.468 107.027C160.624 104.29 164.683 103.793 164.959 104.066C165.458 104.559 161.249 110.975 160.963 111.962C160.412 113.87 158.966 116.404 158.966 116.404L156.968 118.378L155.469 119.365C155.469 119.365 158.836 117.756 158.966 117.884C159.465 118.378 158.466 124.3 157.967 125.287C156.709 127.773 154.471 129.728 153.971 130.222C153.228 130.955 155.969 128.741 156.468 129.235C156.968 129.728 153.971 134.17 153.971 134.17L150.475 138.118C150.475 138.118 153.971 135.446 153.971 136.144C153.971 138.118 148.826 144.719 148.477 145.027C147.428 145.952 151.549 142.754 151.474 143.053C150.475 147.001 143.483 155.39 144.482 154.403C145.652 153.247 146.979 151.442 147.478 151.442C147.978 151.442 146.048 155.293 144.482 157.364C142.494 159.993 136.99 163.286 137.989 162.793C138.928 162.328 140.486 161.312 140.486 161.806C140.486 162.299 135.492 168.714 132.995 171.182L129.998 182.039L130.997 182.532C130.997 182.532 129.275 185 128.5 185C127.501 185 131.066 171.347 133.494 162.793Z" fill="#FFAA1D"/>
</svg>
